<mxfile host="Electron" agent="Mozilla/5.0 (Windows NT 10.0; Win64; x64) AppleWebKit/537.36 (KHTML, like Gecko) draw.io/27.0.9 Chrome/134.0.6998.205 Electron/35.4.0 Safari/537.36" version="27.0.9" pages="4">
  <diagram name="RNN" id="Sj-AfVCmATpeN1ST9yKY">
    <mxGraphModel dx="1426" dy="875" grid="1" gridSize="10" guides="1" tooltips="1" connect="1" arrows="1" fold="1" page="1" pageScale="1" pageWidth="827" pageHeight="1169" math="0" shadow="0">
      <root>
        <mxCell id="0" />
        <mxCell id="1" parent="0" />
        <mxCell id="AekAROX9ymRsv2VLZo-F-1" value="RNN" style="swimlane;whiteSpace=wrap;html=1;labelBackgroundColor=none;rounded=1;strokeColor=#0000FF;" parent="1" vertex="1">
          <mxGeometry x="30" y="250" width="850" height="190" as="geometry" />
        </mxCell>
        <mxCell id="AekAROX9ymRsv2VLZo-F-6" value="" style="edgeStyle=orthogonalEdgeStyle;rounded=1;orthogonalLoop=1;jettySize=auto;html=1;labelBackgroundColor=none;fontColor=default;strokeColor=#0000FF;" parent="AekAROX9ymRsv2VLZo-F-1" source="AekAROX9ymRsv2VLZo-F-2" target="AekAROX9ymRsv2VLZo-F-3" edge="1">
          <mxGeometry relative="1" as="geometry" />
        </mxCell>
        <mxCell id="AekAROX9ymRsv2VLZo-F-2" value="CELL" style="ellipse;whiteSpace=wrap;html=1;labelBackgroundColor=none;rounded=1;strokeColor=#0000FF;" parent="AekAROX9ymRsv2VLZo-F-1" vertex="1">
          <mxGeometry x="50" y="70" width="80" height="80" as="geometry" />
        </mxCell>
        <mxCell id="AekAROX9ymRsv2VLZo-F-3" value="CELL" style="ellipse;whiteSpace=wrap;html=1;labelBackgroundColor=none;rounded=1;strokeColor=#0000FF;" parent="AekAROX9ymRsv2VLZo-F-1" vertex="1">
          <mxGeometry x="210" y="70" width="80" height="80" as="geometry" />
        </mxCell>
        <mxCell id="AekAROX9ymRsv2VLZo-F-7" value="" style="endArrow=none;dashed=1;html=1;dashPattern=1 3;strokeWidth=2;rounded=1;exitX=0.5;exitY=1;exitDx=0;exitDy=0;labelBackgroundColor=none;fontColor=default;strokeColor=#0000FF;" parent="AekAROX9ymRsv2VLZo-F-1" edge="1">
          <mxGeometry width="50" height="50" relative="1" as="geometry">
            <mxPoint x="330" y="109.5" as="sourcePoint" />
            <mxPoint x="690" y="110.5" as="targetPoint" />
          </mxGeometry>
        </mxCell>
        <mxCell id="AekAROX9ymRsv2VLZo-F-8" value="CELL" style="ellipse;whiteSpace=wrap;html=1;aspect=fixed;labelBackgroundColor=none;rounded=1;strokeColor=#0000FF;" parent="AekAROX9ymRsv2VLZo-F-1" vertex="1">
          <mxGeometry x="730" y="70" width="80" height="80" as="geometry" />
        </mxCell>
        <mxCell id="AekAROX9ymRsv2VLZo-F-11" value="Linear" style="swimlane;whiteSpace=wrap;html=1;labelBackgroundColor=none;rounded=1;strokeColor=#0000FF;" parent="1" vertex="1">
          <mxGeometry x="960" y="60" width="120" height="560" as="geometry" />
        </mxCell>
        <mxCell id="AekAROX9ymRsv2VLZo-F-12" value="" style="ellipse;whiteSpace=wrap;html=1;aspect=fixed;labelBackgroundColor=none;rounded=1;strokeColor=#0000FF;" parent="AekAROX9ymRsv2VLZo-F-11" vertex="1">
          <mxGeometry x="40" y="60" width="40" height="40" as="geometry" />
        </mxCell>
        <mxCell id="AekAROX9ymRsv2VLZo-F-14" value="" style="ellipse;whiteSpace=wrap;html=1;aspect=fixed;labelBackgroundColor=none;rounded=1;strokeColor=#0000FF;" parent="AekAROX9ymRsv2VLZo-F-11" vertex="1">
          <mxGeometry x="40" y="140" width="40" height="40" as="geometry" />
        </mxCell>
        <mxCell id="AekAROX9ymRsv2VLZo-F-15" value="" style="ellipse;whiteSpace=wrap;html=1;aspect=fixed;labelBackgroundColor=none;rounded=1;strokeColor=#0000FF;" parent="AekAROX9ymRsv2VLZo-F-11" vertex="1">
          <mxGeometry x="40" y="420" width="40" height="40" as="geometry" />
        </mxCell>
        <mxCell id="AekAROX9ymRsv2VLZo-F-16" value="" style="ellipse;whiteSpace=wrap;html=1;aspect=fixed;labelBackgroundColor=none;rounded=1;strokeColor=#0000FF;" parent="AekAROX9ymRsv2VLZo-F-11" vertex="1">
          <mxGeometry x="40" y="500" width="40" height="40" as="geometry" />
        </mxCell>
        <mxCell id="AekAROX9ymRsv2VLZo-F-13" value="" style="endArrow=classic;html=1;rounded=1;labelBackgroundColor=none;fontColor=default;strokeColor=#0000FF;" parent="1" source="AekAROX9ymRsv2VLZo-F-8" target="AekAROX9ymRsv2VLZo-F-12" edge="1">
          <mxGeometry width="50" height="50" relative="1" as="geometry">
            <mxPoint x="620" y="660" as="sourcePoint" />
            <mxPoint x="670" y="610" as="targetPoint" />
          </mxGeometry>
        </mxCell>
        <mxCell id="AekAROX9ymRsv2VLZo-F-17" value="" style="endArrow=classic;html=1;rounded=1;labelBackgroundColor=none;fontColor=default;strokeColor=#0000FF;" parent="1" source="AekAROX9ymRsv2VLZo-F-8" target="AekAROX9ymRsv2VLZo-F-14" edge="1">
          <mxGeometry width="50" height="50" relative="1" as="geometry">
            <mxPoint x="790" y="560" as="sourcePoint" />
            <mxPoint x="840" y="510" as="targetPoint" />
          </mxGeometry>
        </mxCell>
        <mxCell id="AekAROX9ymRsv2VLZo-F-18" value="" style="endArrow=classic;html=1;rounded=1;labelBackgroundColor=none;fontColor=default;strokeColor=#0000FF;" parent="1" source="AekAROX9ymRsv2VLZo-F-8" target="AekAROX9ymRsv2VLZo-F-15" edge="1">
          <mxGeometry width="50" height="50" relative="1" as="geometry">
            <mxPoint x="910" y="530" as="sourcePoint" />
            <mxPoint x="960" y="480" as="targetPoint" />
          </mxGeometry>
        </mxCell>
        <mxCell id="AekAROX9ymRsv2VLZo-F-19" value="" style="endArrow=classic;html=1;rounded=1;labelBackgroundColor=none;fontColor=default;strokeColor=#0000FF;" parent="1" source="AekAROX9ymRsv2VLZo-F-8" target="AekAROX9ymRsv2VLZo-F-16" edge="1">
          <mxGeometry width="50" height="50" relative="1" as="geometry">
            <mxPoint x="580" y="470" as="sourcePoint" />
            <mxPoint x="630" y="420" as="targetPoint" />
          </mxGeometry>
        </mxCell>
        <mxCell id="AekAROX9ymRsv2VLZo-F-20" value="" style="endArrow=classic;html=1;rounded=1;labelBackgroundColor=none;fontColor=default;strokeColor=#0000FF;" parent="1" source="AekAROX9ymRsv2VLZo-F-12" target="AekAROX9ymRsv2VLZo-F-30" edge="1">
          <mxGeometry width="50" height="50" relative="1" as="geometry">
            <mxPoint x="1150" y="310" as="sourcePoint" />
            <mxPoint x="1230" y="370" as="targetPoint" />
          </mxGeometry>
        </mxCell>
        <mxCell id="AekAROX9ymRsv2VLZo-F-21" value="" style="endArrow=classic;html=1;rounded=1;labelBackgroundColor=none;fontColor=default;strokeColor=#0000FF;" parent="1" source="AekAROX9ymRsv2VLZo-F-14" target="AekAROX9ymRsv2VLZo-F-30" edge="1">
          <mxGeometry width="50" height="50" relative="1" as="geometry">
            <mxPoint x="1130" y="430" as="sourcePoint" />
            <mxPoint x="1190" y="400" as="targetPoint" />
          </mxGeometry>
        </mxCell>
        <mxCell id="AekAROX9ymRsv2VLZo-F-23" value="Input Data" style="rounded=1;whiteSpace=wrap;html=1;labelBackgroundColor=none;strokeColor=#0000FF;" parent="1" vertex="1">
          <mxGeometry x="80" y="460" width="80" height="60" as="geometry" />
        </mxCell>
        <mxCell id="AekAROX9ymRsv2VLZo-F-24" value="" style="endArrow=classic;html=1;rounded=1;labelBackgroundColor=none;fontColor=default;strokeColor=#0000FF;" parent="1" source="AekAROX9ymRsv2VLZo-F-23" target="AekAROX9ymRsv2VLZo-F-2" edge="1">
          <mxGeometry width="50" height="50" relative="1" as="geometry">
            <mxPoint x="310" y="680" as="sourcePoint" />
            <mxPoint x="360" y="630" as="targetPoint" />
          </mxGeometry>
        </mxCell>
        <mxCell id="AekAROX9ymRsv2VLZo-F-25" value="Input Data" style="rounded=1;whiteSpace=wrap;html=1;labelBackgroundColor=none;strokeColor=#0000FF;" parent="1" vertex="1">
          <mxGeometry x="240" y="460" width="80" height="60" as="geometry" />
        </mxCell>
        <mxCell id="AekAROX9ymRsv2VLZo-F-26" value="" style="endArrow=none;dashed=1;html=1;dashPattern=1 3;strokeWidth=2;rounded=1;exitX=0.5;exitY=1;exitDx=0;exitDy=0;labelBackgroundColor=none;fontColor=default;strokeColor=#0000FF;" parent="1" edge="1">
          <mxGeometry width="50" height="50" relative="1" as="geometry">
            <mxPoint x="360" y="489.5" as="sourcePoint" />
            <mxPoint x="720" y="490.5" as="targetPoint" />
          </mxGeometry>
        </mxCell>
        <mxCell id="AekAROX9ymRsv2VLZo-F-27" value="Input Data" style="rounded=1;whiteSpace=wrap;html=1;labelBackgroundColor=none;strokeColor=#0000FF;" parent="1" vertex="1">
          <mxGeometry x="760" y="460" width="80" height="60" as="geometry" />
        </mxCell>
        <mxCell id="AekAROX9ymRsv2VLZo-F-28" value="" style="endArrow=classic;html=1;rounded=1;labelBackgroundColor=none;fontColor=default;strokeColor=#0000FF;" parent="1" source="AekAROX9ymRsv2VLZo-F-27" target="AekAROX9ymRsv2VLZo-F-8" edge="1">
          <mxGeometry width="50" height="50" relative="1" as="geometry">
            <mxPoint x="870" y="680" as="sourcePoint" />
            <mxPoint x="920" y="630" as="targetPoint" />
          </mxGeometry>
        </mxCell>
        <mxCell id="AekAROX9ymRsv2VLZo-F-30" value="output" style="ellipse;whiteSpace=wrap;html=1;aspect=fixed;labelBackgroundColor=none;rounded=1;strokeColor=#0000FF;" parent="1" vertex="1">
          <mxGeometry x="1160" y="320" width="81" height="81" as="geometry" />
        </mxCell>
        <mxCell id="AekAROX9ymRsv2VLZo-F-31" value="" style="endArrow=classic;html=1;rounded=1;labelBackgroundColor=none;fontColor=default;strokeColor=#0000FF;" parent="1" source="AekAROX9ymRsv2VLZo-F-15" target="AekAROX9ymRsv2VLZo-F-30" edge="1">
          <mxGeometry width="50" height="50" relative="1" as="geometry">
            <mxPoint x="1260" y="620" as="sourcePoint" />
            <mxPoint x="1310" y="570" as="targetPoint" />
          </mxGeometry>
        </mxCell>
        <mxCell id="AekAROX9ymRsv2VLZo-F-32" value="" style="endArrow=classic;html=1;rounded=1;labelBackgroundColor=none;fontColor=default;strokeColor=#0000FF;" parent="1" source="AekAROX9ymRsv2VLZo-F-16" target="AekAROX9ymRsv2VLZo-F-30" edge="1">
          <mxGeometry width="50" height="50" relative="1" as="geometry">
            <mxPoint x="1130" y="630" as="sourcePoint" />
            <mxPoint x="1180" y="580" as="targetPoint" />
          </mxGeometry>
        </mxCell>
        <mxCell id="AekAROX9ymRsv2VLZo-F-33" value="" style="endArrow=classic;html=1;rounded=1;labelBackgroundColor=none;fontColor=default;strokeColor=#0000FF;" parent="1" source="AekAROX9ymRsv2VLZo-F-25" target="AekAROX9ymRsv2VLZo-F-3" edge="1">
          <mxGeometry width="50" height="50" relative="1" as="geometry">
            <mxPoint x="580" y="470" as="sourcePoint" />
            <mxPoint x="630" y="420" as="targetPoint" />
          </mxGeometry>
        </mxCell>
        <mxCell id="AekAROX9ymRsv2VLZo-F-34" value="" style="endArrow=none;dashed=1;html=1;dashPattern=1 3;strokeWidth=2;rounded=1;labelBackgroundColor=none;fontColor=default;strokeColor=#0000FF;" parent="1" edge="1">
          <mxGeometry width="50" height="50" relative="1" as="geometry">
            <mxPoint x="1020" y="460" as="sourcePoint" />
            <mxPoint x="1020" y="260" as="targetPoint" />
          </mxGeometry>
        </mxCell>
        <mxCell id="AekAROX9ymRsv2VLZo-F-35" value="" style="endArrow=classic;html=1;rounded=1;strokeWidth=3;labelBackgroundColor=none;fontColor=default;strokeColor=#0000FF;" parent="1" edge="1">
          <mxGeometry width="50" height="50" relative="1" as="geometry">
            <mxPoint x="80" y="580" as="sourcePoint" />
            <mxPoint x="840" y="580" as="targetPoint" />
          </mxGeometry>
        </mxCell>
        <mxCell id="AekAROX9ymRsv2VLZo-F-36" value="&lt;span style=&quot;font-size: 16px;&quot;&gt;March&lt;/span&gt;" style="text;html=1;align=center;verticalAlign=middle;resizable=0;points=[];autosize=1;strokeColor=none;fillColor=none;labelBackgroundColor=none;rounded=1;" parent="1" vertex="1">
          <mxGeometry x="80" y="550" width="70" height="30" as="geometry" />
        </mxCell>
        <mxCell id="AekAROX9ymRsv2VLZo-F-37" value="&lt;font style=&quot;font-size: 16px;&quot;&gt;August&lt;/font&gt;" style="text;html=1;align=center;verticalAlign=middle;resizable=0;points=[];autosize=1;strokeColor=none;fillColor=none;labelBackgroundColor=none;rounded=1;" parent="1" vertex="1">
          <mxGeometry x="760" y="550" width="70" height="30" as="geometry" />
        </mxCell>
      </root>
    </mxGraphModel>
  </diagram>
  <diagram id="WZvgqLEtftJHLQnkqO7h" name="CNNRegressor">
    <mxGraphModel dx="1426" dy="875" grid="1" gridSize="10" guides="1" tooltips="1" connect="1" arrows="1" fold="1" page="1" pageScale="1" pageWidth="827" pageHeight="1169" math="0" shadow="0">
      <root>
        <mxCell id="0" />
        <mxCell id="1" parent="0" />
        <mxCell id="zzWfMpiT_peUd1hukxVl-1" value="CNN" style="rounded=1;whiteSpace=wrap;html=1;labelBackgroundColor=none;strokeColor=#0000FF;" parent="1" vertex="1">
          <mxGeometry x="80" y="440" width="80" height="80" as="geometry" />
        </mxCell>
        <mxCell id="zzWfMpiT_peUd1hukxVl-3" value="Input Image" style="rounded=1;whiteSpace=wrap;html=1;labelBackgroundColor=none;strokeColor=#0000FF;" parent="1" vertex="1">
          <mxGeometry x="80" y="620" width="80" height="60" as="geometry" />
        </mxCell>
        <mxCell id="zzWfMpiT_peUd1hukxVl-4" value="" style="endArrow=classic;html=1;rounded=1;labelBackgroundColor=none;fontColor=default;strokeColor=#0000FF;" parent="1" source="zzWfMpiT_peUd1hukxVl-3" target="zzWfMpiT_peUd1hukxVl-1" edge="1">
          <mxGeometry width="50" height="50" relative="1" as="geometry">
            <mxPoint x="20" y="660" as="sourcePoint" />
            <mxPoint x="70" y="610" as="targetPoint" />
          </mxGeometry>
        </mxCell>
        <mxCell id="F0kuxfTuZH73dVjG3igg-1" value="Linear" style="swimlane;whiteSpace=wrap;html=1;labelBackgroundColor=none;rounded=1;strokeColor=#0000FF;" parent="1" vertex="1">
          <mxGeometry x="290" y="200" width="120" height="560" as="geometry" />
        </mxCell>
        <mxCell id="F0kuxfTuZH73dVjG3igg-2" value="" style="ellipse;whiteSpace=wrap;html=1;aspect=fixed;labelBackgroundColor=none;rounded=1;strokeColor=#0000FF;" parent="F0kuxfTuZH73dVjG3igg-1" vertex="1">
          <mxGeometry x="40" y="60" width="40" height="40" as="geometry" />
        </mxCell>
        <mxCell id="F0kuxfTuZH73dVjG3igg-3" value="" style="ellipse;whiteSpace=wrap;html=1;aspect=fixed;labelBackgroundColor=none;rounded=1;strokeColor=#0000FF;" parent="F0kuxfTuZH73dVjG3igg-1" vertex="1">
          <mxGeometry x="40" y="140" width="40" height="40" as="geometry" />
        </mxCell>
        <mxCell id="F0kuxfTuZH73dVjG3igg-4" value="" style="ellipse;whiteSpace=wrap;html=1;aspect=fixed;labelBackgroundColor=none;rounded=1;strokeColor=#0000FF;" parent="F0kuxfTuZH73dVjG3igg-1" vertex="1">
          <mxGeometry x="40" y="420" width="40" height="40" as="geometry" />
        </mxCell>
        <mxCell id="F0kuxfTuZH73dVjG3igg-5" value="" style="ellipse;whiteSpace=wrap;html=1;aspect=fixed;labelBackgroundColor=none;rounded=1;strokeColor=#0000FF;" parent="F0kuxfTuZH73dVjG3igg-1" vertex="1">
          <mxGeometry x="40" y="500" width="40" height="40" as="geometry" />
        </mxCell>
        <mxCell id="F0kuxfTuZH73dVjG3igg-6" value="" style="endArrow=classic;html=1;rounded=1;labelBackgroundColor=none;fontColor=default;strokeColor=#0000FF;" parent="1" source="F0kuxfTuZH73dVjG3igg-2" target="F0kuxfTuZH73dVjG3igg-8" edge="1">
          <mxGeometry width="50" height="50" relative="1" as="geometry">
            <mxPoint x="480" y="450" as="sourcePoint" />
            <mxPoint x="560" y="510" as="targetPoint" />
          </mxGeometry>
        </mxCell>
        <mxCell id="F0kuxfTuZH73dVjG3igg-7" value="" style="endArrow=classic;html=1;rounded=1;labelBackgroundColor=none;fontColor=default;strokeColor=#0000FF;" parent="1" source="F0kuxfTuZH73dVjG3igg-3" target="F0kuxfTuZH73dVjG3igg-8" edge="1">
          <mxGeometry width="50" height="50" relative="1" as="geometry">
            <mxPoint x="460" y="570" as="sourcePoint" />
            <mxPoint x="520" y="540" as="targetPoint" />
          </mxGeometry>
        </mxCell>
        <mxCell id="F0kuxfTuZH73dVjG3igg-8" value="output" style="ellipse;whiteSpace=wrap;html=1;aspect=fixed;labelBackgroundColor=none;rounded=1;strokeColor=#0000FF;" parent="1" vertex="1">
          <mxGeometry x="480" y="440" width="81" height="81" as="geometry" />
        </mxCell>
        <mxCell id="F0kuxfTuZH73dVjG3igg-9" value="" style="endArrow=classic;html=1;rounded=1;labelBackgroundColor=none;fontColor=default;strokeColor=#0000FF;" parent="1" source="F0kuxfTuZH73dVjG3igg-4" target="F0kuxfTuZH73dVjG3igg-8" edge="1">
          <mxGeometry width="50" height="50" relative="1" as="geometry">
            <mxPoint x="590" y="760" as="sourcePoint" />
            <mxPoint x="640" y="710" as="targetPoint" />
          </mxGeometry>
        </mxCell>
        <mxCell id="F0kuxfTuZH73dVjG3igg-10" value="" style="endArrow=classic;html=1;rounded=1;labelBackgroundColor=none;fontColor=default;strokeColor=#0000FF;" parent="1" source="F0kuxfTuZH73dVjG3igg-5" target="F0kuxfTuZH73dVjG3igg-8" edge="1">
          <mxGeometry width="50" height="50" relative="1" as="geometry">
            <mxPoint x="460" y="770" as="sourcePoint" />
            <mxPoint x="510" y="720" as="targetPoint" />
          </mxGeometry>
        </mxCell>
        <mxCell id="F0kuxfTuZH73dVjG3igg-11" value="" style="endArrow=none;dashed=1;html=1;dashPattern=1 3;strokeWidth=2;rounded=1;labelBackgroundColor=none;fontColor=default;strokeColor=#0000FF;" parent="1" edge="1">
          <mxGeometry width="50" height="50" relative="1" as="geometry">
            <mxPoint x="350" y="600" as="sourcePoint" />
            <mxPoint x="350" y="400" as="targetPoint" />
          </mxGeometry>
        </mxCell>
        <mxCell id="F0kuxfTuZH73dVjG3igg-12" value="" style="endArrow=classic;html=1;rounded=1;labelBackgroundColor=none;fontColor=default;strokeColor=#0000FF;" parent="1" source="zzWfMpiT_peUd1hukxVl-1" target="F0kuxfTuZH73dVjG3igg-2" edge="1">
          <mxGeometry width="50" height="50" relative="1" as="geometry">
            <mxPoint x="110" y="350" as="sourcePoint" />
            <mxPoint x="160" y="300" as="targetPoint" />
          </mxGeometry>
        </mxCell>
        <mxCell id="F0kuxfTuZH73dVjG3igg-13" value="" style="endArrow=classic;html=1;rounded=1;labelBackgroundColor=none;fontColor=default;strokeColor=#0000FF;" parent="1" source="zzWfMpiT_peUd1hukxVl-1" target="F0kuxfTuZH73dVjG3igg-3" edge="1">
          <mxGeometry width="50" height="50" relative="1" as="geometry">
            <mxPoint x="120" y="360" as="sourcePoint" />
            <mxPoint x="170" y="310" as="targetPoint" />
          </mxGeometry>
        </mxCell>
        <mxCell id="F0kuxfTuZH73dVjG3igg-14" value="" style="endArrow=classic;html=1;rounded=1;labelBackgroundColor=none;fontColor=default;strokeColor=#0000FF;" parent="1" source="zzWfMpiT_peUd1hukxVl-1" target="F0kuxfTuZH73dVjG3igg-4" edge="1">
          <mxGeometry width="50" height="50" relative="1" as="geometry">
            <mxPoint x="210" y="570" as="sourcePoint" />
            <mxPoint x="260" y="520" as="targetPoint" />
          </mxGeometry>
        </mxCell>
        <mxCell id="F0kuxfTuZH73dVjG3igg-15" value="" style="endArrow=classic;html=1;rounded=1;labelBackgroundColor=none;fontColor=default;strokeColor=#0000FF;" parent="1" source="zzWfMpiT_peUd1hukxVl-1" target="F0kuxfTuZH73dVjG3igg-5" edge="1">
          <mxGeometry width="50" height="50" relative="1" as="geometry">
            <mxPoint x="190" y="630" as="sourcePoint" />
            <mxPoint x="240" y="580" as="targetPoint" />
          </mxGeometry>
        </mxCell>
      </root>
    </mxGraphModel>
  </diagram>
  <diagram name="MultiCNNGRU" id="PIVVVUb-LmMdida2YQ8e">
    <mxGraphModel dx="1426" dy="875" grid="1" gridSize="10" guides="1" tooltips="1" connect="1" arrows="1" fold="1" page="1" pageScale="1" pageWidth="827" pageHeight="1169" math="0" shadow="0">
      <root>
        <mxCell id="TR_h4j_igll_KEDJ52zW-0" />
        <mxCell id="TR_h4j_igll_KEDJ52zW-1" parent="TR_h4j_igll_KEDJ52zW-0" />
        <mxCell id="TR_h4j_igll_KEDJ52zW-2" value="RNN" style="swimlane;whiteSpace=wrap;html=1;labelBackgroundColor=none;strokeColor=#0000FF;rounded=1;" parent="TR_h4j_igll_KEDJ52zW-1" vertex="1">
          <mxGeometry x="30" y="250" width="850" height="310" as="geometry" />
        </mxCell>
        <mxCell id="TR_h4j_igll_KEDJ52zW-3" value="" style="edgeStyle=orthogonalEdgeStyle;rounded=1;orthogonalLoop=1;jettySize=auto;html=1;labelBackgroundColor=none;fontColor=default;strokeColor=#0000FF;" parent="TR_h4j_igll_KEDJ52zW-2" source="TR_h4j_igll_KEDJ52zW-4" target="TR_h4j_igll_KEDJ52zW-5" edge="1">
          <mxGeometry relative="1" as="geometry" />
        </mxCell>
        <mxCell id="TR_h4j_igll_KEDJ52zW-4" value="GRU" style="ellipse;whiteSpace=wrap;html=1;labelBackgroundColor=none;strokeColor=#0000FF;rounded=1;" parent="TR_h4j_igll_KEDJ52zW-2" vertex="1">
          <mxGeometry x="50" y="70" width="80" height="80" as="geometry" />
        </mxCell>
        <mxCell id="TR_h4j_igll_KEDJ52zW-5" value="GRU" style="ellipse;whiteSpace=wrap;html=1;labelBackgroundColor=none;strokeColor=#0000FF;rounded=1;" parent="TR_h4j_igll_KEDJ52zW-2" vertex="1">
          <mxGeometry x="210" y="70" width="80" height="80" as="geometry" />
        </mxCell>
        <mxCell id="TR_h4j_igll_KEDJ52zW-6" value="" style="endArrow=none;dashed=1;html=1;dashPattern=1 3;strokeWidth=2;rounded=1;exitX=0.5;exitY=1;exitDx=0;exitDy=0;labelBackgroundColor=none;fontColor=default;strokeColor=#0000FF;" parent="TR_h4j_igll_KEDJ52zW-2" edge="1">
          <mxGeometry width="50" height="50" relative="1" as="geometry">
            <mxPoint x="330" y="109.5" as="sourcePoint" />
            <mxPoint x="690" y="110.5" as="targetPoint" />
          </mxGeometry>
        </mxCell>
        <mxCell id="TR_h4j_igll_KEDJ52zW-7" value="GRU" style="ellipse;whiteSpace=wrap;html=1;aspect=fixed;labelBackgroundColor=none;strokeColor=#0000FF;rounded=1;" parent="TR_h4j_igll_KEDJ52zW-2" vertex="1">
          <mxGeometry x="730" y="70" width="80" height="80" as="geometry" />
        </mxCell>
        <mxCell id="tTnDnqmHSB4DEAb0oVE_-2" value="CNN" style="rounded=1;whiteSpace=wrap;html=1;labelBackgroundColor=none;strokeColor=#0000FF;" parent="TR_h4j_igll_KEDJ52zW-2" vertex="1">
          <mxGeometry x="50" y="190" width="80" height="80" as="geometry" />
        </mxCell>
        <mxCell id="tTnDnqmHSB4DEAb0oVE_-3" value="CNN" style="rounded=1;whiteSpace=wrap;html=1;labelBackgroundColor=none;strokeColor=#0000FF;" parent="TR_h4j_igll_KEDJ52zW-2" vertex="1">
          <mxGeometry x="210" y="190" width="80" height="80" as="geometry" />
        </mxCell>
        <mxCell id="tTnDnqmHSB4DEAb0oVE_-4" value="CNN" style="rounded=1;whiteSpace=wrap;html=1;labelBackgroundColor=none;strokeColor=#0000FF;" parent="TR_h4j_igll_KEDJ52zW-2" vertex="1">
          <mxGeometry x="730" y="190" width="80" height="80" as="geometry" />
        </mxCell>
        <mxCell id="tTnDnqmHSB4DEAb0oVE_-8" value="" style="endArrow=classic;html=1;rounded=1;labelBackgroundColor=none;fontColor=default;strokeColor=#0000FF;" parent="TR_h4j_igll_KEDJ52zW-2" source="tTnDnqmHSB4DEAb0oVE_-2" target="TR_h4j_igll_KEDJ52zW-4" edge="1">
          <mxGeometry width="50" height="50" relative="1" as="geometry">
            <mxPoint x="370" y="400" as="sourcePoint" />
            <mxPoint x="420" y="350" as="targetPoint" />
          </mxGeometry>
        </mxCell>
        <mxCell id="tTnDnqmHSB4DEAb0oVE_-9" value="" style="endArrow=classic;html=1;rounded=1;labelBackgroundColor=none;fontColor=default;strokeColor=#0000FF;" parent="TR_h4j_igll_KEDJ52zW-2" source="tTnDnqmHSB4DEAb0oVE_-3" target="TR_h4j_igll_KEDJ52zW-5" edge="1">
          <mxGeometry width="50" height="50" relative="1" as="geometry">
            <mxPoint x="510" y="270" as="sourcePoint" />
            <mxPoint x="560" y="220" as="targetPoint" />
          </mxGeometry>
        </mxCell>
        <mxCell id="tTnDnqmHSB4DEAb0oVE_-10" value="" style="endArrow=classic;html=1;rounded=1;labelBackgroundColor=none;fontColor=default;strokeColor=#0000FF;" parent="TR_h4j_igll_KEDJ52zW-2" source="tTnDnqmHSB4DEAb0oVE_-4" target="TR_h4j_igll_KEDJ52zW-7" edge="1">
          <mxGeometry width="50" height="50" relative="1" as="geometry">
            <mxPoint x="490" y="280" as="sourcePoint" />
            <mxPoint x="540" y="230" as="targetPoint" />
          </mxGeometry>
        </mxCell>
        <mxCell id="tTnDnqmHSB4DEAb0oVE_-13" value="" style="endArrow=none;dashed=1;html=1;dashPattern=1 3;strokeWidth=2;rounded=1;exitX=0.5;exitY=1;exitDx=0;exitDy=0;labelBackgroundColor=none;fontColor=default;strokeColor=#0000FF;" parent="TR_h4j_igll_KEDJ52zW-2" edge="1">
          <mxGeometry width="50" height="50" relative="1" as="geometry">
            <mxPoint x="330" y="229.5" as="sourcePoint" />
            <mxPoint x="690" y="230.5" as="targetPoint" />
          </mxGeometry>
        </mxCell>
        <mxCell id="TR_h4j_igll_KEDJ52zW-8" value="Linear" style="swimlane;whiteSpace=wrap;html=1;labelBackgroundColor=none;strokeColor=#0000FF;rounded=1;" parent="TR_h4j_igll_KEDJ52zW-1" vertex="1">
          <mxGeometry x="960" y="60" width="120" height="560" as="geometry" />
        </mxCell>
        <mxCell id="TR_h4j_igll_KEDJ52zW-9" value="" style="ellipse;whiteSpace=wrap;html=1;aspect=fixed;labelBackgroundColor=none;strokeColor=#0000FF;rounded=1;" parent="TR_h4j_igll_KEDJ52zW-8" vertex="1">
          <mxGeometry x="40" y="60" width="40" height="40" as="geometry" />
        </mxCell>
        <mxCell id="TR_h4j_igll_KEDJ52zW-10" value="" style="ellipse;whiteSpace=wrap;html=1;aspect=fixed;labelBackgroundColor=none;strokeColor=#0000FF;rounded=1;" parent="TR_h4j_igll_KEDJ52zW-8" vertex="1">
          <mxGeometry x="40" y="140" width="40" height="40" as="geometry" />
        </mxCell>
        <mxCell id="TR_h4j_igll_KEDJ52zW-11" value="" style="ellipse;whiteSpace=wrap;html=1;aspect=fixed;labelBackgroundColor=none;strokeColor=#0000FF;rounded=1;" parent="TR_h4j_igll_KEDJ52zW-8" vertex="1">
          <mxGeometry x="40" y="420" width="40" height="40" as="geometry" />
        </mxCell>
        <mxCell id="TR_h4j_igll_KEDJ52zW-12" value="" style="ellipse;whiteSpace=wrap;html=1;aspect=fixed;labelBackgroundColor=none;strokeColor=#0000FF;rounded=1;" parent="TR_h4j_igll_KEDJ52zW-8" vertex="1">
          <mxGeometry x="40" y="500" width="40" height="40" as="geometry" />
        </mxCell>
        <mxCell id="TR_h4j_igll_KEDJ52zW-13" value="" style="endArrow=classic;html=1;rounded=1;labelBackgroundColor=none;fontColor=default;strokeColor=#0000FF;" parent="TR_h4j_igll_KEDJ52zW-1" source="TR_h4j_igll_KEDJ52zW-7" target="TR_h4j_igll_KEDJ52zW-9" edge="1">
          <mxGeometry width="50" height="50" relative="1" as="geometry">
            <mxPoint x="620" y="660" as="sourcePoint" />
            <mxPoint x="670" y="610" as="targetPoint" />
          </mxGeometry>
        </mxCell>
        <mxCell id="TR_h4j_igll_KEDJ52zW-14" value="" style="endArrow=classic;html=1;rounded=1;labelBackgroundColor=none;fontColor=default;strokeColor=#0000FF;" parent="TR_h4j_igll_KEDJ52zW-1" source="TR_h4j_igll_KEDJ52zW-7" target="TR_h4j_igll_KEDJ52zW-10" edge="1">
          <mxGeometry width="50" height="50" relative="1" as="geometry">
            <mxPoint x="790" y="560" as="sourcePoint" />
            <mxPoint x="840" y="510" as="targetPoint" />
          </mxGeometry>
        </mxCell>
        <mxCell id="TR_h4j_igll_KEDJ52zW-15" value="" style="endArrow=classic;html=1;rounded=1;labelBackgroundColor=none;fontColor=default;strokeColor=#0000FF;" parent="TR_h4j_igll_KEDJ52zW-1" source="TR_h4j_igll_KEDJ52zW-7" target="TR_h4j_igll_KEDJ52zW-11" edge="1">
          <mxGeometry width="50" height="50" relative="1" as="geometry">
            <mxPoint x="910" y="530" as="sourcePoint" />
            <mxPoint x="960" y="480" as="targetPoint" />
          </mxGeometry>
        </mxCell>
        <mxCell id="TR_h4j_igll_KEDJ52zW-16" value="" style="endArrow=classic;html=1;rounded=1;labelBackgroundColor=none;fontColor=default;strokeColor=#0000FF;" parent="TR_h4j_igll_KEDJ52zW-1" source="TR_h4j_igll_KEDJ52zW-7" target="TR_h4j_igll_KEDJ52zW-12" edge="1">
          <mxGeometry width="50" height="50" relative="1" as="geometry">
            <mxPoint x="580" y="470" as="sourcePoint" />
            <mxPoint x="630" y="420" as="targetPoint" />
          </mxGeometry>
        </mxCell>
        <mxCell id="TR_h4j_igll_KEDJ52zW-17" value="" style="endArrow=classic;html=1;rounded=1;labelBackgroundColor=none;fontColor=default;strokeColor=#0000FF;" parent="TR_h4j_igll_KEDJ52zW-1" source="TR_h4j_igll_KEDJ52zW-9" target="TR_h4j_igll_KEDJ52zW-25" edge="1">
          <mxGeometry width="50" height="50" relative="1" as="geometry">
            <mxPoint x="1150" y="310" as="sourcePoint" />
            <mxPoint x="1230" y="370" as="targetPoint" />
          </mxGeometry>
        </mxCell>
        <mxCell id="TR_h4j_igll_KEDJ52zW-18" value="" style="endArrow=classic;html=1;rounded=1;labelBackgroundColor=none;fontColor=default;strokeColor=#0000FF;" parent="TR_h4j_igll_KEDJ52zW-1" source="TR_h4j_igll_KEDJ52zW-10" target="TR_h4j_igll_KEDJ52zW-25" edge="1">
          <mxGeometry width="50" height="50" relative="1" as="geometry">
            <mxPoint x="1130" y="430" as="sourcePoint" />
            <mxPoint x="1190" y="400" as="targetPoint" />
          </mxGeometry>
        </mxCell>
        <mxCell id="TR_h4j_igll_KEDJ52zW-19" value="Input Image" style="rounded=1;whiteSpace=wrap;html=1;labelBackgroundColor=none;strokeColor=#0000FF;" parent="TR_h4j_igll_KEDJ52zW-1" vertex="1">
          <mxGeometry x="80" y="580" width="80" height="60" as="geometry" />
        </mxCell>
        <mxCell id="TR_h4j_igll_KEDJ52zW-21" value="Input Image" style="rounded=1;whiteSpace=wrap;html=1;labelBackgroundColor=none;strokeColor=#0000FF;" parent="TR_h4j_igll_KEDJ52zW-1" vertex="1">
          <mxGeometry x="240" y="580" width="80" height="60" as="geometry" />
        </mxCell>
        <mxCell id="TR_h4j_igll_KEDJ52zW-22" value="" style="endArrow=none;dashed=1;html=1;dashPattern=1 3;strokeWidth=2;rounded=1;exitX=0.5;exitY=1;exitDx=0;exitDy=0;labelBackgroundColor=none;fontColor=default;strokeColor=#0000FF;" parent="TR_h4j_igll_KEDJ52zW-1" edge="1">
          <mxGeometry width="50" height="50" relative="1" as="geometry">
            <mxPoint x="360" y="609.5" as="sourcePoint" />
            <mxPoint x="720" y="610.5" as="targetPoint" />
          </mxGeometry>
        </mxCell>
        <mxCell id="TR_h4j_igll_KEDJ52zW-23" value="Input Image" style="rounded=1;whiteSpace=wrap;html=1;labelBackgroundColor=none;strokeColor=#0000FF;" parent="TR_h4j_igll_KEDJ52zW-1" vertex="1">
          <mxGeometry x="760" y="580" width="80" height="60" as="geometry" />
        </mxCell>
        <mxCell id="TR_h4j_igll_KEDJ52zW-25" value="output" style="ellipse;whiteSpace=wrap;html=1;aspect=fixed;labelBackgroundColor=none;strokeColor=#0000FF;rounded=1;" parent="TR_h4j_igll_KEDJ52zW-1" vertex="1">
          <mxGeometry x="1160" y="320" width="81" height="81" as="geometry" />
        </mxCell>
        <mxCell id="TR_h4j_igll_KEDJ52zW-26" value="" style="endArrow=classic;html=1;rounded=1;labelBackgroundColor=none;fontColor=default;strokeColor=#0000FF;" parent="TR_h4j_igll_KEDJ52zW-1" source="TR_h4j_igll_KEDJ52zW-11" target="TR_h4j_igll_KEDJ52zW-25" edge="1">
          <mxGeometry width="50" height="50" relative="1" as="geometry">
            <mxPoint x="1260" y="620" as="sourcePoint" />
            <mxPoint x="1310" y="570" as="targetPoint" />
          </mxGeometry>
        </mxCell>
        <mxCell id="TR_h4j_igll_KEDJ52zW-27" value="" style="endArrow=classic;html=1;rounded=1;labelBackgroundColor=none;fontColor=default;strokeColor=#0000FF;" parent="TR_h4j_igll_KEDJ52zW-1" source="TR_h4j_igll_KEDJ52zW-12" target="TR_h4j_igll_KEDJ52zW-25" edge="1">
          <mxGeometry width="50" height="50" relative="1" as="geometry">
            <mxPoint x="1130" y="630" as="sourcePoint" />
            <mxPoint x="1180" y="580" as="targetPoint" />
          </mxGeometry>
        </mxCell>
        <mxCell id="TR_h4j_igll_KEDJ52zW-29" value="" style="endArrow=none;dashed=1;html=1;dashPattern=1 3;strokeWidth=2;rounded=1;labelBackgroundColor=none;fontColor=default;strokeColor=#0000FF;" parent="TR_h4j_igll_KEDJ52zW-1" edge="1">
          <mxGeometry width="50" height="50" relative="1" as="geometry">
            <mxPoint x="1020" y="460" as="sourcePoint" />
            <mxPoint x="1020" y="260" as="targetPoint" />
          </mxGeometry>
        </mxCell>
        <mxCell id="TR_h4j_igll_KEDJ52zW-30" value="" style="endArrow=classic;html=1;rounded=1;strokeWidth=3;labelBackgroundColor=none;fontColor=default;strokeColor=#0000FF;" parent="TR_h4j_igll_KEDJ52zW-1" edge="1">
          <mxGeometry width="50" height="50" relative="1" as="geometry">
            <mxPoint x="80" y="700" as="sourcePoint" />
            <mxPoint x="840" y="700" as="targetPoint" />
          </mxGeometry>
        </mxCell>
        <mxCell id="TR_h4j_igll_KEDJ52zW-31" value="&lt;font style=&quot;font-size: 16px;&quot;&gt;March&lt;/font&gt;" style="text;html=1;align=center;verticalAlign=middle;resizable=0;points=[];autosize=1;strokeColor=none;fillColor=none;labelBackgroundColor=none;rounded=1;" parent="TR_h4j_igll_KEDJ52zW-1" vertex="1">
          <mxGeometry x="80" y="670" width="70" height="30" as="geometry" />
        </mxCell>
        <mxCell id="TR_h4j_igll_KEDJ52zW-32" value="&lt;font style=&quot;font-size: 16px;&quot;&gt;August&lt;/font&gt;" style="text;html=1;align=center;verticalAlign=middle;resizable=0;points=[];autosize=1;strokeColor=none;fillColor=none;labelBackgroundColor=none;rounded=1;" parent="TR_h4j_igll_KEDJ52zW-1" vertex="1">
          <mxGeometry x="760" y="670" width="70" height="30" as="geometry" />
        </mxCell>
        <mxCell id="tTnDnqmHSB4DEAb0oVE_-5" value="" style="endArrow=classic;html=1;rounded=1;labelBackgroundColor=none;fontColor=default;strokeColor=#0000FF;" parent="TR_h4j_igll_KEDJ52zW-1" source="TR_h4j_igll_KEDJ52zW-19" target="tTnDnqmHSB4DEAb0oVE_-2" edge="1">
          <mxGeometry width="50" height="50" relative="1" as="geometry">
            <mxPoint x="20" y="660" as="sourcePoint" />
            <mxPoint x="70" y="610" as="targetPoint" />
          </mxGeometry>
        </mxCell>
        <mxCell id="tTnDnqmHSB4DEAb0oVE_-6" value="" style="endArrow=classic;html=1;rounded=1;labelBackgroundColor=none;fontColor=default;strokeColor=#0000FF;" parent="TR_h4j_igll_KEDJ52zW-1" source="TR_h4j_igll_KEDJ52zW-21" target="tTnDnqmHSB4DEAb0oVE_-3" edge="1">
          <mxGeometry width="50" height="50" relative="1" as="geometry">
            <mxPoint x="300" y="900" as="sourcePoint" />
            <mxPoint x="350" y="850" as="targetPoint" />
          </mxGeometry>
        </mxCell>
        <mxCell id="tTnDnqmHSB4DEAb0oVE_-7" value="" style="endArrow=classic;html=1;rounded=1;labelBackgroundColor=none;fontColor=default;strokeColor=#0000FF;" parent="TR_h4j_igll_KEDJ52zW-1" source="TR_h4j_igll_KEDJ52zW-23" target="tTnDnqmHSB4DEAb0oVE_-4" edge="1">
          <mxGeometry width="50" height="50" relative="1" as="geometry">
            <mxPoint x="600" y="840" as="sourcePoint" />
            <mxPoint x="650" y="790" as="targetPoint" />
          </mxGeometry>
        </mxCell>
      </root>
    </mxGraphModel>
  </diagram>
  <diagram name="MultiModal" id="rms-AX0IhPHDSO0VPLuI">
    <mxGraphModel dx="1426" dy="875" grid="1" gridSize="10" guides="1" tooltips="1" connect="1" arrows="1" fold="1" page="1" pageScale="1" pageWidth="827" pageHeight="1169" math="0" shadow="0">
      <root>
        <mxCell id="VSYe6JShFSjt_LBTZ5Zj-0" />
        <mxCell id="VSYe6JShFSjt_LBTZ5Zj-1" parent="VSYe6JShFSjt_LBTZ5Zj-0" />
        <mxCell id="a_Je7ZeLh06Acm6Z6uNy-0" value="RNN" style="swimlane;whiteSpace=wrap;html=1;labelBackgroundColor=none;strokeColor=#0000FF;rounded=1;" parent="VSYe6JShFSjt_LBTZ5Zj-1" vertex="1">
          <mxGeometry x="120" y="950" width="850" height="310" as="geometry" />
        </mxCell>
        <mxCell id="a_Je7ZeLh06Acm6Z6uNy-1" value="" style="edgeStyle=orthogonalEdgeStyle;rounded=1;orthogonalLoop=1;jettySize=auto;html=1;labelBackgroundColor=none;fontColor=default;strokeColor=#0000FF;" parent="a_Je7ZeLh06Acm6Z6uNy-0" source="a_Je7ZeLh06Acm6Z6uNy-2" target="a_Je7ZeLh06Acm6Z6uNy-3" edge="1">
          <mxGeometry relative="1" as="geometry" />
        </mxCell>
        <mxCell id="a_Je7ZeLh06Acm6Z6uNy-2" value="GRU" style="ellipse;whiteSpace=wrap;html=1;labelBackgroundColor=none;strokeColor=#0000FF;rounded=1;" parent="a_Je7ZeLh06Acm6Z6uNy-0" vertex="1">
          <mxGeometry x="50" y="70" width="80" height="80" as="geometry" />
        </mxCell>
        <mxCell id="a_Je7ZeLh06Acm6Z6uNy-3" value="GRU" style="ellipse;whiteSpace=wrap;html=1;labelBackgroundColor=none;strokeColor=#0000FF;rounded=1;" parent="a_Je7ZeLh06Acm6Z6uNy-0" vertex="1">
          <mxGeometry x="210" y="70" width="80" height="80" as="geometry" />
        </mxCell>
        <mxCell id="a_Je7ZeLh06Acm6Z6uNy-4" value="" style="endArrow=none;dashed=1;html=1;dashPattern=1 3;strokeWidth=2;rounded=1;exitX=0.5;exitY=1;exitDx=0;exitDy=0;labelBackgroundColor=none;fontColor=default;strokeColor=#0000FF;" parent="a_Je7ZeLh06Acm6Z6uNy-0" edge="1">
          <mxGeometry width="50" height="50" relative="1" as="geometry">
            <mxPoint x="330" y="109.5" as="sourcePoint" />
            <mxPoint x="690" y="110.5" as="targetPoint" />
          </mxGeometry>
        </mxCell>
        <mxCell id="a_Je7ZeLh06Acm6Z6uNy-5" value="GRU" style="ellipse;whiteSpace=wrap;html=1;aspect=fixed;labelBackgroundColor=none;strokeColor=#0000FF;rounded=1;" parent="a_Je7ZeLh06Acm6Z6uNy-0" vertex="1">
          <mxGeometry x="730" y="70" width="80" height="80" as="geometry" />
        </mxCell>
        <mxCell id="s4TQmc01jS7_WHApl-px-28" value="concate" style="rounded=1;whiteSpace=wrap;html=1;labelBackgroundColor=none;strokeColor=#0000FF;" parent="a_Je7ZeLh06Acm6Z6uNy-0" vertex="1">
          <mxGeometry x="50" y="200" width="80" height="60" as="geometry" />
        </mxCell>
        <mxCell id="s4TQmc01jS7_WHApl-px-29" value="concate" style="rounded=1;whiteSpace=wrap;html=1;labelBackgroundColor=none;strokeColor=#0000FF;" parent="a_Je7ZeLh06Acm6Z6uNy-0" vertex="1">
          <mxGeometry x="210" y="200" width="80" height="60" as="geometry" />
        </mxCell>
        <mxCell id="s4TQmc01jS7_WHApl-px-30" value="concate" style="rounded=1;whiteSpace=wrap;html=1;labelBackgroundColor=none;strokeColor=#0000FF;" parent="a_Je7ZeLh06Acm6Z6uNy-0" vertex="1">
          <mxGeometry x="730" y="200" width="80" height="60" as="geometry" />
        </mxCell>
        <mxCell id="vNY7qpKXiFx5lgG7tEEq-4" value="" style="endArrow=classic;html=1;rounded=1;labelBackgroundColor=none;fontColor=default;strokeColor=#0000FF;" parent="a_Je7ZeLh06Acm6Z6uNy-0" source="s4TQmc01jS7_WHApl-px-30" target="a_Je7ZeLh06Acm6Z6uNy-5" edge="1">
          <mxGeometry width="50" height="50" relative="1" as="geometry">
            <mxPoint x="680" y="250" as="sourcePoint" />
            <mxPoint x="680" y="150" as="targetPoint" />
          </mxGeometry>
        </mxCell>
        <mxCell id="vNY7qpKXiFx5lgG7tEEq-5" value="" style="endArrow=classic;html=1;rounded=1;labelBackgroundColor=none;fontColor=default;strokeColor=#0000FF;" parent="a_Je7ZeLh06Acm6Z6uNy-0" source="s4TQmc01jS7_WHApl-px-29" target="a_Je7ZeLh06Acm6Z6uNy-3" edge="1">
          <mxGeometry width="50" height="50" relative="1" as="geometry">
            <mxPoint x="450" y="350" as="sourcePoint" />
            <mxPoint x="450" y="250" as="targetPoint" />
          </mxGeometry>
        </mxCell>
        <mxCell id="vNY7qpKXiFx5lgG7tEEq-6" value="" style="endArrow=classic;html=1;rounded=1;labelBackgroundColor=none;fontColor=default;strokeColor=#0000FF;" parent="a_Je7ZeLh06Acm6Z6uNy-0" source="s4TQmc01jS7_WHApl-px-28" target="a_Je7ZeLh06Acm6Z6uNy-2" edge="1">
          <mxGeometry width="50" height="50" relative="1" as="geometry">
            <mxPoint x="220" y="340" as="sourcePoint" />
            <mxPoint x="220" y="240" as="targetPoint" />
          </mxGeometry>
        </mxCell>
        <mxCell id="a_Je7ZeLh06Acm6Z6uNy-13" value="Linear" style="swimlane;whiteSpace=wrap;html=1;labelBackgroundColor=none;strokeColor=#0000FF;rounded=1;" parent="VSYe6JShFSjt_LBTZ5Zj-1" vertex="1">
          <mxGeometry x="1050" y="760" width="120" height="560" as="geometry" />
        </mxCell>
        <mxCell id="a_Je7ZeLh06Acm6Z6uNy-14" value="" style="ellipse;whiteSpace=wrap;html=1;aspect=fixed;labelBackgroundColor=none;strokeColor=#0000FF;rounded=1;" parent="a_Je7ZeLh06Acm6Z6uNy-13" vertex="1">
          <mxGeometry x="40" y="60" width="40" height="40" as="geometry" />
        </mxCell>
        <mxCell id="a_Je7ZeLh06Acm6Z6uNy-15" value="" style="ellipse;whiteSpace=wrap;html=1;aspect=fixed;labelBackgroundColor=none;strokeColor=#0000FF;rounded=1;" parent="a_Je7ZeLh06Acm6Z6uNy-13" vertex="1">
          <mxGeometry x="40" y="140" width="40" height="40" as="geometry" />
        </mxCell>
        <mxCell id="a_Je7ZeLh06Acm6Z6uNy-16" value="" style="ellipse;whiteSpace=wrap;html=1;aspect=fixed;labelBackgroundColor=none;strokeColor=#0000FF;rounded=1;" parent="a_Je7ZeLh06Acm6Z6uNy-13" vertex="1">
          <mxGeometry x="40" y="420" width="40" height="40" as="geometry" />
        </mxCell>
        <mxCell id="a_Je7ZeLh06Acm6Z6uNy-17" value="" style="ellipse;whiteSpace=wrap;html=1;aspect=fixed;labelBackgroundColor=none;strokeColor=#0000FF;rounded=1;" parent="a_Je7ZeLh06Acm6Z6uNy-13" vertex="1">
          <mxGeometry x="40" y="500" width="40" height="40" as="geometry" />
        </mxCell>
        <mxCell id="a_Je7ZeLh06Acm6Z6uNy-18" value="" style="endArrow=classic;html=1;rounded=1;labelBackgroundColor=none;fontColor=default;strokeColor=#0000FF;" parent="VSYe6JShFSjt_LBTZ5Zj-1" source="a_Je7ZeLh06Acm6Z6uNy-5" target="a_Je7ZeLh06Acm6Z6uNy-14" edge="1">
          <mxGeometry width="50" height="50" relative="1" as="geometry">
            <mxPoint x="710" y="1360" as="sourcePoint" />
            <mxPoint x="760" y="1310" as="targetPoint" />
          </mxGeometry>
        </mxCell>
        <mxCell id="a_Je7ZeLh06Acm6Z6uNy-19" value="" style="endArrow=classic;html=1;rounded=1;labelBackgroundColor=none;fontColor=default;strokeColor=#0000FF;" parent="VSYe6JShFSjt_LBTZ5Zj-1" source="a_Je7ZeLh06Acm6Z6uNy-5" target="a_Je7ZeLh06Acm6Z6uNy-15" edge="1">
          <mxGeometry width="50" height="50" relative="1" as="geometry">
            <mxPoint x="880" y="1260" as="sourcePoint" />
            <mxPoint x="930" y="1210" as="targetPoint" />
          </mxGeometry>
        </mxCell>
        <mxCell id="a_Je7ZeLh06Acm6Z6uNy-20" value="" style="endArrow=classic;html=1;rounded=1;labelBackgroundColor=none;fontColor=default;strokeColor=#0000FF;" parent="VSYe6JShFSjt_LBTZ5Zj-1" source="a_Je7ZeLh06Acm6Z6uNy-5" target="a_Je7ZeLh06Acm6Z6uNy-16" edge="1">
          <mxGeometry width="50" height="50" relative="1" as="geometry">
            <mxPoint x="1000" y="1230" as="sourcePoint" />
            <mxPoint x="1050" y="1180" as="targetPoint" />
          </mxGeometry>
        </mxCell>
        <mxCell id="a_Je7ZeLh06Acm6Z6uNy-21" value="" style="endArrow=classic;html=1;rounded=1;labelBackgroundColor=none;fontColor=default;strokeColor=#0000FF;" parent="VSYe6JShFSjt_LBTZ5Zj-1" source="a_Je7ZeLh06Acm6Z6uNy-5" target="a_Je7ZeLh06Acm6Z6uNy-17" edge="1">
          <mxGeometry width="50" height="50" relative="1" as="geometry">
            <mxPoint x="670" y="1170" as="sourcePoint" />
            <mxPoint x="720" y="1120" as="targetPoint" />
          </mxGeometry>
        </mxCell>
        <mxCell id="a_Je7ZeLh06Acm6Z6uNy-22" value="" style="endArrow=classic;html=1;rounded=1;labelBackgroundColor=none;fontColor=default;strokeColor=#0000FF;" parent="VSYe6JShFSjt_LBTZ5Zj-1" source="a_Je7ZeLh06Acm6Z6uNy-14" target="a_Je7ZeLh06Acm6Z6uNy-28" edge="1">
          <mxGeometry width="50" height="50" relative="1" as="geometry">
            <mxPoint x="1240" y="1010" as="sourcePoint" />
            <mxPoint x="1320" y="1070" as="targetPoint" />
          </mxGeometry>
        </mxCell>
        <mxCell id="a_Je7ZeLh06Acm6Z6uNy-23" value="" style="endArrow=classic;html=1;rounded=1;labelBackgroundColor=none;fontColor=default;strokeColor=#0000FF;" parent="VSYe6JShFSjt_LBTZ5Zj-1" source="a_Je7ZeLh06Acm6Z6uNy-15" target="a_Je7ZeLh06Acm6Z6uNy-28" edge="1">
          <mxGeometry width="50" height="50" relative="1" as="geometry">
            <mxPoint x="1220" y="1130" as="sourcePoint" />
            <mxPoint x="1280" y="1100" as="targetPoint" />
          </mxGeometry>
        </mxCell>
        <mxCell id="a_Je7ZeLh06Acm6Z6uNy-28" value="output" style="ellipse;whiteSpace=wrap;html=1;aspect=fixed;labelBackgroundColor=none;strokeColor=#0000FF;rounded=1;" parent="VSYe6JShFSjt_LBTZ5Zj-1" vertex="1">
          <mxGeometry x="1250" y="1020" width="81" height="81" as="geometry" />
        </mxCell>
        <mxCell id="a_Je7ZeLh06Acm6Z6uNy-29" value="" style="endArrow=classic;html=1;rounded=1;labelBackgroundColor=none;fontColor=default;strokeColor=#0000FF;" parent="VSYe6JShFSjt_LBTZ5Zj-1" source="a_Je7ZeLh06Acm6Z6uNy-16" target="a_Je7ZeLh06Acm6Z6uNy-28" edge="1">
          <mxGeometry width="50" height="50" relative="1" as="geometry">
            <mxPoint x="1350" y="1320" as="sourcePoint" />
            <mxPoint x="1400" y="1270" as="targetPoint" />
          </mxGeometry>
        </mxCell>
        <mxCell id="a_Je7ZeLh06Acm6Z6uNy-30" value="" style="endArrow=classic;html=1;rounded=1;labelBackgroundColor=none;fontColor=default;strokeColor=#0000FF;" parent="VSYe6JShFSjt_LBTZ5Zj-1" source="a_Je7ZeLh06Acm6Z6uNy-17" target="a_Je7ZeLh06Acm6Z6uNy-28" edge="1">
          <mxGeometry width="50" height="50" relative="1" as="geometry">
            <mxPoint x="1220" y="1330" as="sourcePoint" />
            <mxPoint x="1270" y="1280" as="targetPoint" />
          </mxGeometry>
        </mxCell>
        <mxCell id="a_Je7ZeLh06Acm6Z6uNy-31" value="" style="endArrow=none;dashed=1;html=1;dashPattern=1 3;strokeWidth=2;rounded=1;labelBackgroundColor=none;fontColor=default;strokeColor=#0000FF;" parent="VSYe6JShFSjt_LBTZ5Zj-1" edge="1">
          <mxGeometry width="50" height="50" relative="1" as="geometry">
            <mxPoint x="1110" y="1160" as="sourcePoint" />
            <mxPoint x="1110" y="960" as="targetPoint" />
          </mxGeometry>
        </mxCell>
        <mxCell id="a_Je7ZeLh06Acm6Z6uNy-6" value="CNN" style="rounded=1;whiteSpace=wrap;html=1;labelBackgroundColor=none;strokeColor=#0000FF;" parent="VSYe6JShFSjt_LBTZ5Zj-1" vertex="1">
          <mxGeometry x="170" y="1280" width="80" height="80" as="geometry" />
        </mxCell>
        <mxCell id="a_Je7ZeLh06Acm6Z6uNy-7" value="CNN" style="rounded=1;whiteSpace=wrap;html=1;labelBackgroundColor=none;strokeColor=#0000FF;" parent="VSYe6JShFSjt_LBTZ5Zj-1" vertex="1">
          <mxGeometry x="330" y="1280" width="80" height="80" as="geometry" />
        </mxCell>
        <mxCell id="a_Je7ZeLh06Acm6Z6uNy-8" value="CNN" style="rounded=1;whiteSpace=wrap;html=1;labelBackgroundColor=none;strokeColor=#0000FF;" parent="VSYe6JShFSjt_LBTZ5Zj-1" vertex="1">
          <mxGeometry x="850" y="1280" width="80" height="80" as="geometry" />
        </mxCell>
        <mxCell id="a_Je7ZeLh06Acm6Z6uNy-12" value="" style="endArrow=none;dashed=1;html=1;dashPattern=1 3;strokeWidth=2;rounded=1;exitX=0.5;exitY=1;exitDx=0;exitDy=0;labelBackgroundColor=none;fontColor=default;strokeColor=#0000FF;" parent="VSYe6JShFSjt_LBTZ5Zj-1" edge="1">
          <mxGeometry width="50" height="50" relative="1" as="geometry">
            <mxPoint x="450" y="1319.5" as="sourcePoint" />
            <mxPoint x="810" y="1320.5" as="targetPoint" />
          </mxGeometry>
        </mxCell>
        <mxCell id="a_Je7ZeLh06Acm6Z6uNy-9" value="" style="endArrow=classic;html=1;rounded=1;labelBackgroundColor=none;fontColor=default;strokeColor=#0000FF;" parent="VSYe6JShFSjt_LBTZ5Zj-1" source="a_Je7ZeLh06Acm6Z6uNy-6" target="s4TQmc01jS7_WHApl-px-28" edge="1">
          <mxGeometry width="50" height="50" relative="1" as="geometry">
            <mxPoint x="490" y="1350" as="sourcePoint" />
            <mxPoint x="210" y="1220" as="targetPoint" />
          </mxGeometry>
        </mxCell>
        <mxCell id="a_Je7ZeLh06Acm6Z6uNy-24" value="Input Image" style="rounded=1;whiteSpace=wrap;html=1;labelBackgroundColor=none;strokeColor=#0000FF;" parent="VSYe6JShFSjt_LBTZ5Zj-1" vertex="1">
          <mxGeometry x="170" y="1400" width="80" height="60" as="geometry" />
        </mxCell>
        <mxCell id="a_Je7ZeLh06Acm6Z6uNy-10" value="" style="endArrow=classic;html=1;rounded=1;labelBackgroundColor=none;fontColor=default;strokeColor=#0000FF;" parent="VSYe6JShFSjt_LBTZ5Zj-1" source="a_Je7ZeLh06Acm6Z6uNy-7" target="s4TQmc01jS7_WHApl-px-29" edge="1">
          <mxGeometry width="50" height="50" relative="1" as="geometry">
            <mxPoint x="630" y="1220" as="sourcePoint" />
            <mxPoint x="370" y="1220" as="targetPoint" />
          </mxGeometry>
        </mxCell>
        <mxCell id="a_Je7ZeLh06Acm6Z6uNy-25" value="Input Image" style="rounded=1;whiteSpace=wrap;html=1;labelBackgroundColor=none;strokeColor=#0000FF;" parent="VSYe6JShFSjt_LBTZ5Zj-1" vertex="1">
          <mxGeometry x="330" y="1400" width="80" height="60" as="geometry" />
        </mxCell>
        <mxCell id="a_Je7ZeLh06Acm6Z6uNy-11" value="" style="endArrow=classic;html=1;rounded=1;labelBackgroundColor=none;fontColor=default;strokeColor=#0000FF;" parent="VSYe6JShFSjt_LBTZ5Zj-1" source="a_Je7ZeLh06Acm6Z6uNy-8" target="s4TQmc01jS7_WHApl-px-30" edge="1">
          <mxGeometry width="50" height="50" relative="1" as="geometry">
            <mxPoint x="610" y="1230" as="sourcePoint" />
            <mxPoint x="890" y="1220" as="targetPoint" />
          </mxGeometry>
        </mxCell>
        <mxCell id="a_Je7ZeLh06Acm6Z6uNy-26" value="" style="endArrow=none;dashed=1;html=1;dashPattern=1 3;strokeWidth=2;rounded=1;exitX=0.5;exitY=1;exitDx=0;exitDy=0;labelBackgroundColor=none;fontColor=default;strokeColor=#0000FF;" parent="VSYe6JShFSjt_LBTZ5Zj-1" edge="1">
          <mxGeometry width="50" height="50" relative="1" as="geometry">
            <mxPoint x="450" y="1429.5" as="sourcePoint" />
            <mxPoint x="810" y="1430.5" as="targetPoint" />
          </mxGeometry>
        </mxCell>
        <mxCell id="a_Je7ZeLh06Acm6Z6uNy-27" value="Input Image" style="rounded=1;whiteSpace=wrap;html=1;labelBackgroundColor=none;strokeColor=#0000FF;" parent="VSYe6JShFSjt_LBTZ5Zj-1" vertex="1">
          <mxGeometry x="850" y="1400" width="80" height="60" as="geometry" />
        </mxCell>
        <mxCell id="a_Je7ZeLh06Acm6Z6uNy-32" value="" style="endArrow=classic;html=1;rounded=1;strokeWidth=3;labelBackgroundColor=none;fontColor=default;strokeColor=#0000FF;" parent="VSYe6JShFSjt_LBTZ5Zj-1" edge="1">
          <mxGeometry width="50" height="50" relative="1" as="geometry">
            <mxPoint x="165" y="1800" as="sourcePoint" />
            <mxPoint x="925" y="1800" as="targetPoint" />
          </mxGeometry>
        </mxCell>
        <mxCell id="a_Je7ZeLh06Acm6Z6uNy-33" value="&lt;font style=&quot;font-size: 16px;&quot;&gt;March&lt;/font&gt;" style="text;html=1;align=center;verticalAlign=middle;resizable=0;points=[];autosize=1;strokeColor=none;fillColor=none;labelBackgroundColor=none;rounded=1;" parent="VSYe6JShFSjt_LBTZ5Zj-1" vertex="1">
          <mxGeometry x="165" y="1770" width="70" height="30" as="geometry" />
        </mxCell>
        <mxCell id="a_Je7ZeLh06Acm6Z6uNy-34" value="&lt;font style=&quot;font-size: 16px;&quot;&gt;August&lt;/font&gt;" style="text;html=1;align=center;verticalAlign=middle;resizable=0;points=[];autosize=1;strokeColor=none;fillColor=none;labelBackgroundColor=none;rounded=1;" parent="VSYe6JShFSjt_LBTZ5Zj-1" vertex="1">
          <mxGeometry x="845" y="1770" width="70" height="30" as="geometry" />
        </mxCell>
        <mxCell id="a_Je7ZeLh06Acm6Z6uNy-35" value="" style="endArrow=classic;html=1;rounded=1;labelBackgroundColor=none;fontColor=default;strokeColor=#0000FF;" parent="VSYe6JShFSjt_LBTZ5Zj-1" source="a_Je7ZeLh06Acm6Z6uNy-24" target="a_Je7ZeLh06Acm6Z6uNy-6" edge="1">
          <mxGeometry width="50" height="50" relative="1" as="geometry">
            <mxPoint x="110" y="1500" as="sourcePoint" />
            <mxPoint x="160" y="1450" as="targetPoint" />
          </mxGeometry>
        </mxCell>
        <mxCell id="a_Je7ZeLh06Acm6Z6uNy-36" value="" style="endArrow=classic;html=1;rounded=1;labelBackgroundColor=none;fontColor=default;strokeColor=#0000FF;" parent="VSYe6JShFSjt_LBTZ5Zj-1" source="a_Je7ZeLh06Acm6Z6uNy-25" target="a_Je7ZeLh06Acm6Z6uNy-7" edge="1">
          <mxGeometry width="50" height="50" relative="1" as="geometry">
            <mxPoint x="390" y="1740" as="sourcePoint" />
            <mxPoint x="440" y="1690" as="targetPoint" />
          </mxGeometry>
        </mxCell>
        <mxCell id="a_Je7ZeLh06Acm6Z6uNy-37" value="" style="endArrow=classic;html=1;rounded=1;labelBackgroundColor=none;fontColor=default;strokeColor=#0000FF;" parent="VSYe6JShFSjt_LBTZ5Zj-1" source="a_Je7ZeLh06Acm6Z6uNy-27" target="a_Je7ZeLh06Acm6Z6uNy-8" edge="1">
          <mxGeometry width="50" height="50" relative="1" as="geometry">
            <mxPoint x="690" y="1680" as="sourcePoint" />
            <mxPoint x="740" y="1630" as="targetPoint" />
          </mxGeometry>
        </mxCell>
        <mxCell id="s4TQmc01jS7_WHApl-px-17" value="GRU" style="rounded=1;whiteSpace=wrap;html=1;labelBackgroundColor=none;strokeColor=#0000FF;" parent="VSYe6JShFSjt_LBTZ5Zj-1" vertex="1">
          <mxGeometry x="170" y="1540" width="80" height="80" as="geometry" />
        </mxCell>
        <mxCell id="s4TQmc01jS7_WHApl-px-18" value="GRU" style="rounded=1;whiteSpace=wrap;html=1;labelBackgroundColor=none;strokeColor=#0000FF;" parent="VSYe6JShFSjt_LBTZ5Zj-1" vertex="1">
          <mxGeometry x="330" y="1540" width="80" height="80" as="geometry" />
        </mxCell>
        <mxCell id="s4TQmc01jS7_WHApl-px-19" value="GRU" style="rounded=1;whiteSpace=wrap;html=1;labelBackgroundColor=none;strokeColor=#0000FF;" parent="VSYe6JShFSjt_LBTZ5Zj-1" vertex="1">
          <mxGeometry x="850" y="1540" width="80" height="80" as="geometry" />
        </mxCell>
        <mxCell id="s4TQmc01jS7_WHApl-px-20" value="" style="endArrow=none;dashed=1;html=1;dashPattern=1 3;strokeWidth=2;rounded=1;exitX=0.5;exitY=1;exitDx=0;exitDy=0;labelBackgroundColor=none;fontColor=default;strokeColor=#0000FF;" parent="VSYe6JShFSjt_LBTZ5Zj-1" edge="1">
          <mxGeometry width="50" height="50" relative="1" as="geometry">
            <mxPoint x="450" y="1579.5" as="sourcePoint" />
            <mxPoint x="810" y="1580.5" as="targetPoint" />
          </mxGeometry>
        </mxCell>
        <mxCell id="s4TQmc01jS7_WHApl-px-21" value="Input Data" style="rounded=1;whiteSpace=wrap;html=1;labelBackgroundColor=none;strokeColor=#0000FF;" parent="VSYe6JShFSjt_LBTZ5Zj-1" vertex="1">
          <mxGeometry x="170" y="1670" width="80" height="60" as="geometry" />
        </mxCell>
        <mxCell id="s4TQmc01jS7_WHApl-px-22" value="Input Data" style="rounded=1;whiteSpace=wrap;html=1;labelBackgroundColor=none;strokeColor=#0000FF;" parent="VSYe6JShFSjt_LBTZ5Zj-1" vertex="1">
          <mxGeometry x="330" y="1670" width="80" height="60" as="geometry" />
        </mxCell>
        <mxCell id="s4TQmc01jS7_WHApl-px-23" value="" style="endArrow=none;dashed=1;html=1;dashPattern=1 3;strokeWidth=2;rounded=1;exitX=0.5;exitY=1;exitDx=0;exitDy=0;labelBackgroundColor=none;fontColor=default;strokeColor=#0000FF;" parent="VSYe6JShFSjt_LBTZ5Zj-1" edge="1">
          <mxGeometry width="50" height="50" relative="1" as="geometry">
            <mxPoint x="450" y="1699.5" as="sourcePoint" />
            <mxPoint x="810" y="1700.5" as="targetPoint" />
          </mxGeometry>
        </mxCell>
        <mxCell id="s4TQmc01jS7_WHApl-px-24" value="Input Data" style="rounded=1;whiteSpace=wrap;html=1;labelBackgroundColor=none;strokeColor=#0000FF;" parent="VSYe6JShFSjt_LBTZ5Zj-1" vertex="1">
          <mxGeometry x="850" y="1670" width="80" height="60" as="geometry" />
        </mxCell>
        <mxCell id="s4TQmc01jS7_WHApl-px-25" value="" style="endArrow=classic;html=1;rounded=1;labelBackgroundColor=none;fontColor=default;strokeColor=#0000FF;" parent="VSYe6JShFSjt_LBTZ5Zj-1" source="s4TQmc01jS7_WHApl-px-21" target="s4TQmc01jS7_WHApl-px-17" edge="1">
          <mxGeometry width="50" height="50" relative="1" as="geometry">
            <mxPoint x="110" y="1760" as="sourcePoint" />
            <mxPoint x="160" y="1710" as="targetPoint" />
          </mxGeometry>
        </mxCell>
        <mxCell id="s4TQmc01jS7_WHApl-px-26" value="" style="endArrow=classic;html=1;rounded=1;labelBackgroundColor=none;fontColor=default;strokeColor=#0000FF;" parent="VSYe6JShFSjt_LBTZ5Zj-1" source="s4TQmc01jS7_WHApl-px-22" target="s4TQmc01jS7_WHApl-px-18" edge="1">
          <mxGeometry width="50" height="50" relative="1" as="geometry">
            <mxPoint x="390" y="2000" as="sourcePoint" />
            <mxPoint x="440" y="1950" as="targetPoint" />
          </mxGeometry>
        </mxCell>
        <mxCell id="s4TQmc01jS7_WHApl-px-27" value="" style="endArrow=classic;html=1;rounded=1;labelBackgroundColor=none;fontColor=default;strokeColor=#0000FF;" parent="VSYe6JShFSjt_LBTZ5Zj-1" source="s4TQmc01jS7_WHApl-px-24" target="s4TQmc01jS7_WHApl-px-19" edge="1">
          <mxGeometry width="50" height="50" relative="1" as="geometry">
            <mxPoint x="690" y="1940" as="sourcePoint" />
            <mxPoint x="740" y="1890" as="targetPoint" />
          </mxGeometry>
        </mxCell>
        <mxCell id="vNY7qpKXiFx5lgG7tEEq-0" value="" style="endArrow=classic;html=1;rounded=0;labelBackgroundColor=none;fontColor=default;strokeColor=#0000FF;curved=1;" parent="VSYe6JShFSjt_LBTZ5Zj-1" source="s4TQmc01jS7_WHApl-px-17" target="s4TQmc01jS7_WHApl-px-28" edge="1">
          <mxGeometry width="50" height="50" relative="1" as="geometry">
            <mxPoint x="120" y="1710" as="sourcePoint" />
            <mxPoint x="120" y="1610" as="targetPoint" />
            <Array as="points">
              <mxPoint x="100" y="1390" />
            </Array>
          </mxGeometry>
        </mxCell>
        <mxCell id="vNY7qpKXiFx5lgG7tEEq-2" value="" style="endArrow=classic;html=1;rounded=0;labelBackgroundColor=none;fontColor=default;strokeColor=#0000FF;curved=1;" parent="VSYe6JShFSjt_LBTZ5Zj-1" source="s4TQmc01jS7_WHApl-px-18" target="s4TQmc01jS7_WHApl-px-29" edge="1">
          <mxGeometry width="50" height="50" relative="1" as="geometry">
            <mxPoint x="352" y="1640" as="sourcePoint" />
            <mxPoint x="356" y="1220" as="targetPoint" />
            <Array as="points">
              <mxPoint x="260" y="1380" />
            </Array>
          </mxGeometry>
        </mxCell>
        <mxCell id="vNY7qpKXiFx5lgG7tEEq-3" value="" style="endArrow=classic;html=1;rounded=0;labelBackgroundColor=none;fontColor=default;strokeColor=#0000FF;curved=1;" parent="VSYe6JShFSjt_LBTZ5Zj-1" source="s4TQmc01jS7_WHApl-px-19" target="s4TQmc01jS7_WHApl-px-30" edge="1">
          <mxGeometry width="50" height="50" relative="1" as="geometry">
            <mxPoint x="872" y="1640" as="sourcePoint" />
            <mxPoint x="876" y="1220" as="targetPoint" />
            <Array as="points">
              <mxPoint x="780" y="1390" />
            </Array>
          </mxGeometry>
        </mxCell>
        <mxCell id="axXue4ZIghtUGxks7x-d-1" value="" style="endArrow=classic;html=1;rounded=1;labelBackgroundColor=none;fontColor=default;strokeColor=#0000FF;shape=link;" parent="VSYe6JShFSjt_LBTZ5Zj-1" edge="1">
          <mxGeometry width="50" height="50" relative="1" as="geometry">
            <mxPoint x="930" y="1500" as="sourcePoint" />
            <mxPoint x="160" y="1500" as="targetPoint" />
          </mxGeometry>
        </mxCell>
        <mxCell id="c8mhJabxSPPFEwxIAWci-1" value="15 days" style="text;html=1;align=center;verticalAlign=middle;resizable=0;points=[];autosize=1;strokeColor=none;fillColor=none;" parent="VSYe6JShFSjt_LBTZ5Zj-1" vertex="1">
          <mxGeometry x="175" y="1730" width="70" height="30" as="geometry" />
        </mxCell>
        <mxCell id="c8mhJabxSPPFEwxIAWci-2" value="15 days" style="text;html=1;align=center;verticalAlign=middle;resizable=0;points=[];autosize=1;strokeColor=none;fillColor=none;" parent="VSYe6JShFSjt_LBTZ5Zj-1" vertex="1">
          <mxGeometry x="335" y="1730" width="70" height="30" as="geometry" />
        </mxCell>
        <mxCell id="c8mhJabxSPPFEwxIAWci-3" value="15 days" style="text;html=1;align=center;verticalAlign=middle;resizable=0;points=[];autosize=1;strokeColor=none;fillColor=none;" parent="VSYe6JShFSjt_LBTZ5Zj-1" vertex="1">
          <mxGeometry x="855" y="1730" width="70" height="30" as="geometry" />
        </mxCell>
      </root>
    </mxGraphModel>
  </diagram>
</mxfile>
